<svg width="18" height="13" viewBox="0 0 18 13" fill="none" xmlns="http://www.w3.org/2000/svg">
<path d="M0.5 3.5L8.04967 7.05279C8.64792 7.33431 9.35208 7.33431 9.95033 7.05279L17.5 3.5M4.75 12.5H13.25C15.2535 12.5 16.2552 12.5 16.8776 11.9142C17.5 11.3284 17.5 10.3856 17.5 8.5V4.5C17.5 2.61438 17.5 1.67157 16.8776 1.08579C16.2552 0.5 15.2535 0.5 13.25 0.5H4.75C2.74653 0.5 1.7448 0.5 1.1224 1.08579C0.5 1.67157 0.5 2.61438 0.5 4.5V8.5C0.5 10.3856 0.5 11.3284 1.1224 11.9142C1.7448 12.5 2.74653 12.5 4.75 12.5Z" stroke="#F05836"/>
</svg>
