<svg width="18" height="20" viewBox="0 0 18 20" fill="none" xmlns="http://www.w3.org/2000/svg">
<path d="M16.622 14.5734C16.3864 14.4294 16.0786 14.5036 15.9346 14.7392C15.7906 14.9748 15.8648 15.2826 16.1004 15.4266L16.3612 15L16.622 14.5734ZM1.89957 15.4266C2.13518 15.2826 2.20942 14.9748 2.06539 14.7392C1.92136 14.5036 1.6136 14.4294 1.378 14.5734L1.63878 15L1.89957 15.4266ZM9.42489 17.2764L9.66606 17.7144L9.42489 17.2764ZM8.57511 17.2764L8.81627 16.8384L8.57511 17.2764ZM16.3612 15L16.1004 15.4266C16.7989 15.8536 17 16.2399 17 16.5H17.5H18C18 15.7069 17.4156 15.0585 16.622 14.5734L16.3612 15ZM17.5 16.5H17C17 16.7601 16.7989 17.1464 16.1004 17.5734L16.3612 18L16.622 18.4266C17.4156 17.9415 18 17.2931 18 16.5H17.5ZM16.3612 18L16.1004 17.5734C15.4224 17.9879 14.4114 18.3511 13.1502 18.6081L13.25 19.0981L13.3498 19.588C14.6729 19.3184 15.808 18.9242 16.622 18.4266L16.3612 18ZM13.25 19.0981L13.1502 18.6081C11.8948 18.8639 10.4628 19 9 19V19.5V20C10.5213 20 12.0209 19.8588 13.3498 19.588L13.25 19.0981ZM9 19.5V19C7.53717 19 6.10518 18.8639 4.84983 18.6081L4.75 19.0981L4.65017 19.588C5.97914 19.8588 7.4787 20 9 20V19.5ZM4.75 19.0981L4.84983 18.6081C3.58862 18.3511 2.57758 17.9879 1.89957 17.5734L1.63878 18L1.378 18.4266C2.19205 18.9242 3.32705 19.3184 4.65017 19.588L4.75 19.0981ZM1.63878 18L1.89957 17.5734C1.20112 17.1464 1 16.7601 1 16.5H0.5H0C2.08616e-07 17.2931 0.584385 17.9415 1.378 18.4266L1.63878 18ZM0.5 16.5H1C1 16.2399 1.20112 15.8536 1.89957 15.4266L1.63878 15L1.378 14.5734C0.584385 15.0585 -2.38419e-07 15.7069 0 16.5H0.5ZM16.5 8H16C16 10.3199 14.7301 12.3008 13.2026 13.8401C11.6798 15.3747 9.95741 16.4124 9.18372 16.8384L9.42489 17.2764L9.66606 17.7144C10.4792 17.2667 12.2943 16.1752 13.9124 14.5445C15.5258 12.9186 17 10.6981 17 8H16.5ZM8.57511 17.2764L8.81627 16.8384C8.04259 16.4124 6.32016 15.3747 4.79742 13.8401C3.26993 12.3007 2 10.3199 2 8H1.5H1C1 10.6981 2.47422 12.9186 4.08758 14.5445C5.7057 16.1752 7.52082 17.2667 8.33394 17.7144L8.57511 17.2764ZM1.5 8H2C2 3.80336 5.38213 1 9 1V0.5V0C4.88589 0 1 3.19664 1 8H1.5ZM9 0.5V1C12.746 1 16 3.79781 16 8H16.5H17C17 3.20219 13.254 0 9 0V0.5ZM9.42489 17.2764L9.18372 16.8384C9.06582 16.9033 8.93418 16.9033 8.81627 16.8384L8.57511 17.2764L8.33394 17.7144C8.75215 17.9447 9.24785 17.9447 9.66606 17.7144L9.42489 17.2764ZM13 8H12.5C12.5 9.933 10.933 11.5 9 11.5V12V12.5C11.4853 12.5 13.5 10.4853 13.5 8H13ZM9 12V11.5C7.067 11.5 5.5 9.933 5.5 8H5H4.5C4.5 10.4853 6.51472 12.5 9 12.5V12ZM5 8H5.5C5.5 6.067 7.067 4.5 9 4.5V4V3.5C6.51472 3.5 4.5 5.51472 4.5 8H5ZM9 4V4.5C10.933 4.5 12.5 6.067 12.5 8H13H13.5C13.5 5.51472 11.4853 3.5 9 3.5V4Z" fill="#F05836"/>
</svg>
