<svg width="17" height="17" viewBox="0 0 17 17" fill="none" xmlns="http://www.w3.org/2000/svg">
<path d="M13.0256 10.999L15.5577 13.68C15.8724 14.0133 15.8724 14.5341 15.5577 14.8674C13.7086 16.8252 10.6689 17.0426 8.56004 15.3679L7.23337 14.3144C5.50583 12.9425 3.98172 11.3324 2.70662 9.53228L1.53708 7.88117C-0.00551853 5.70338 0.203086 2.73961 2.03553 0.799373C2.40383 0.409405 3.02428 0.409404 3.39258 0.799373L5.88644 3.43993C6.25544 3.83063 6.25544 4.44139 5.88644 4.83209L4.88102 5.89665C4.729 6.05762 4.69117 6.2953 4.78571 6.49551L4.86073 6.65437C5.95333 8.96812 7.76606 10.8657 10.0275 12.0629C10.232 12.1712 10.4837 12.1297 10.6426 11.9614L11.5515 10.999C11.9516 10.5754 12.6255 10.5754 13.0256 10.999Z" stroke="#F05836"/>
</svg>
